# xmcd
# Copyright (C) 1995-1998 Ti Kan
#
# Track frame offsets:
#       150
#       16756
#       27177
#       36120
#       48200
#       55776
#       70139
#       94509
#       102535
#       113106
#       127319
#       131544
#       140174
#       151530
#       167605
#       176604
#       189529
#
# Disc length: 2960 seconds
#
# Revision: 0
# Processed by: cddbd v1.5.2PL0 Copyright (c) Steve Scherf et al.
# Submitted via: CD-Import v1.0
#
DISCID=df0b8e11
DTITLE=Silberbüx - Gheim Isch Gheim
DYEAR=2009
DGENRE=
TTITLE0=Gheim Isch Gheim
TTITLE1=Schtei
TTITLE2=Muggä
TTITLE3=Summertag
TTITLE4=Schäre Schtei Papier
TTITLE5=Usä Gah
TTITLE6=Fesan
TTITLE7=Mondmaa
TTITLE8=Sött Mä Wött Mä
TTITLE9=Dä Güschtl
TTITLE10=Rätsel
TTITLE11=Dä Schnägg
TTITLE12=November
TTITLE13=Schneeballschuss
TTITLE14=Pi-Pa-Pinguin
TTITLE15=Zoo
TTITLE16=Uf Wiedergüx Mit Silberbüx
EXTD=
EXTT0=
EXTT1=
EXTT2=
EXTT3=
EXTT4=
EXTT5=
EXTT6=
EXTT7=
EXTT8=
EXTT9=
EXTT10=
EXTT11=
EXTT12=
EXTT13=
EXTT14=
EXTT15=
EXTT16=
PLAYORDER=
